<?xml version="1.0" encoding="UTF-8" standalone="no"?>
<svg width="50px" height="51px" viewBox="0 0 50 51" version="1.1" xmlns="http://www.w3.org/2000/svg" xmlns:xlink="http://www.w3.org/1999/xlink" xmlns:sketch="http://www.bohemiancoding.com/sketch/ns">
    <!-- Generator: Sketch 3.0.4 (8054) - http://www.bohemiancoding.com/sketch -->
    <title>Slice 2</title>
    <desc>Created with Sketch.</desc>
    <defs></defs>
    <g id="Page-1" stroke="none" stroke-width="1" fill="none" fill-rule="evenodd" sketch:type="MSPage">
        <g id="11-linkedin" sketch:type="MSLayerGroup" transform="translate(0.000000, 1.000000)" fill-opacity="0.549026268" fill="#B7BBC9">
            <g id="Group" sketch:type="MSShapeGroup">
                <path d="M15.475,41.304 L8.01,41.304 L8.01,18.845 L15.475,18.845 L15.475,41.304 Z M11.743,15.777 L11.693,15.777 C9.189,15.777 7.569,14.052 7.569,11.897 C7.569,9.694 9.239,8.017 11.792,8.017 C14.346,8.017 15.917,9.694 15.967,11.897 C15.967,14.052 14.345,15.777 11.743,15.777 L11.743,15.777 Z M42.394,41.304 L34.929,41.304 L34.929,29.286 C34.929,26.268 33.849,24.208 31.148,24.208 C29.086,24.208 27.858,25.597 27.317,26.939 C27.12,27.418 27.072,28.088 27.072,28.76 L27.072,41.303 L19.607,41.303 C19.607,41.303 19.705,20.949 19.607,18.844 L27.072,18.844 L27.072,22.023 C28.064,20.493 29.838,18.314 33.801,18.314 C38.712,18.314 42.395,21.525 42.395,28.424 L42.395,41.304 L42.394,41.304 Z" id="Shape"></path>
            </g>
        </g>
    </g>
</svg>